/* XPM */
static char *main_form_icon[] = {
/* width height num_colors chars_per_pixel */
"16 16 31 1",
/* colors */
"  c #000000",
". c #186db2",
"X c #002040",
"o c #104c7a",
"O c #114b7a",
"+ c #2196f3",
"@ c #1b6fb4",
"# c #114c7a",
"$ c #2197f4",
"% c #2296f4",
"& c #2297f3",
"* c #004040",
"= c #1a71b8",
"- c #0d2740",
"; c #09263e",
": c #1971b7",
"> c #09253d",
", c #002b40",
"< c #2297f4",
"1 c #08263d",
"2 c #2197f3",
"3 c #166eb3",
"4 c #2196f4",
"5 c #146cb1",
"6 c #1971b8",
"7 c #1870b7",
"8 c #2296f3",
"9 c #114b79",
"0 c #1a6fb8",
"q c #1b6fb7",
"w c None",
/* pixels */
"wwwwwwwwwwwwwwww",
"wwwwwww.wwwwwwww",
"wwwXoOO+@wO#Xwww",
"wwX$++++%w++&*ww",
"wwO+=-w%;w-:+#ww",
"wwO%Xww>www,+Oww",
"wwwwwwwwwwww+Oww",
"ww.<>wwwww1$+23w",
"w@++4>wwwww125ww",
"wwO+wwwwwwwwwwww",
"wwO+Xwww1ww,+#ww",
"wwO+6ww14ww7+Oww",
"ww*8++w%++++8*ww",
"wwwXo9w0+OO#Xwww",
"wwwwwwwwqwwwwwww",
"wwwwwwwwwwwwwwww"
};
