/* XPM */
static char *main_form_icon[] = {
/* width height num_colors chars_per_pixel */
"32 32 37 1",
/* colors */
"  c #000000",
". c #178be8",
"X c #2195f3",
"o c #2492ed",
"O c #2196f3",
"+ c #0080ff",
"@ c #1f97f2",
"# c #2096f3",
"$ c #2296f2",
"% c #2194f3",
"& c #2197f3",
"* c #2096f2",
"= c #219bf4",
"- c #2095f2",
"; c #2397f3",
": c #2396f5",
"> c #00ffff",
", c #2094f2",
"< c #3399ff",
"1 c #2298f5",
"2 c #2297f2",
"3 c #2295f5",
"4 c #2096f1",
"5 c #00aaff",
"6 c #2293f4",
"7 c #2296f4",
"8 c #2196f4",
"9 c #1e96f0",
"0 c #1f98f2",
"q c #2196f2",
"w c #1f97f5",
"e c #1f94f5",
"r c #2296f1",
"t c #2492f3",
"y c #2b95ea",
"u c #1c8eff",
"i c None",
/* pixels */
"iiiiiiiiiiiiiiiiiiiiiiiiiiiiiiii",
"iiiiiiiiiiiiiiiiiiiiiiiiiiiiiiii",
"iiiiiiiiiiiiii.iiiiiiiiiiiiiiiii",
"iiiiiiiiiiiiiiXoiiiiiiiiiiiiiiii",
"iiiiiiiiiiiiiiOXoiiiiiiiiiiiiiii",
"iiiiiii+@#$OOOOOXoii%$&*+iiiiiii",
"iiiiii=XOOOOOOOOO-iiOOOOO;iiiiii",
"iiiii+XOOOOOOOOOO:iiOOOOOO>iiiii",
"iiiii,OO#:<iiiOO:iiii<1OOO2iiiii",
"iiiiiOOO3iiiiiO:iiiiiii4OOOiiiii",
"iiiiiXOO+iiiii%iiiiiiii5OOXiiiii",
"iiiii677iiiiiiiiiiiiiiiiOOOiiiii",
"iiiiiiiiiiiiiiiiiiiiiiiiOOOiiiii",
"iiiiiiiiiiiiiiiiiiiiiiiiOOOiiiii",
"iiiii.&:iiiiiiiiiiiii#8OOOOOO9ii",
"iiiioXO8%iiiiiiiiiiiii0OOOO&.iii",
"iiioXOOO8%iiiiiiiiiiiii0OO&.iiii",
"iioXOOOOO8%iiiiiiiiiiiii08.iiiii",
"iiiiiOOOiiiiiiiiiiiiiiiiiiiiiiii",
"iiiiiOOOiiiiiiiiiiiiiiiiiiiiiiii",
"iiiiiOOOiiiiiiiiiiiiiiiiOO0iiiii",
"iiiiiXOO+iiiiiiii#iiiii5OOXiiiii",
"iiiiiOOO3iiiiiii#8iiiii4OOOiiiii",
"iiiiiqOO#wiiiii#8OiiiieOOOriiiii",
"iiiii>OOOOOOii#8OOOOOOOOO&>iiiii",
"iiiiii;XOOOOii$OOOOOOOOOOtiiiiii",
"iiiiiii+@#O4iiy&OOOOOO&*+iiiiiii",
"iiiiiiiiiiiiiiiuOOiiiiiiiiiiiiii",
"iiiiiiiiiiiiiiiiuOiiiiiiiiiiiiii",
"iiiiiiiiiiiiiiiiiyiiiiiiiiiiiiii",
"iiiiiiiiiiiiiiiiiiiiiiiiiiiiiiii",
"iiiiiiiiiiiiiiiiiiiiiiiiiiiiiiii"
};
