/* XPM */
static char *freeimage[] = {
/* width height num_colors chars_per_pixel */
"32 32 207 2",
/* colors */
"   c #000000",
" . c #e7ff00",
" X c #ff9e51",
" o c #f950e6",
" O c #50e6ff",
" + c #e6ffff",
" @ c #ffff50",
" # c #ff50e6",
" $ c #e6ff00",
" % c #fffd50",
" & c #55e7fe",
" * c #efefff",
" = c #eaffa3",
" - c #ffbff2",
" ; c #84ebf5",
" : c #bef2ea",
" > c #f8deff",
" , c #deffff",
" < c #fffff8",
" 1 c #fff8de",
" 2 c #ebf6ff",
" 3 c #ffff82",
" 4 c #f5f7e0",
" 5 c #f1ebff",
" 6 c #ffffba",
" 7 c #dbf4e5",
" 8 c #eef0ff",
" 9 c #ffff9f",
" 0 c #6de9fa",
" q c #f4e4ff",
" w c #dfffdd",
" e c #fffaf7",
" r c #e7feff",
" t c #ffff54",
" y c #d9faff",
" u c #eeff46",
" i c #ff2fba",
" p c #31bdef",
" a c #dbfbff",
" s c #ffff48",
" d c #41d2f8",
" f c #adeaff",
" g c #e9ff26",
" h c #ff25ac",
" j c #25ace9",
" k c #aeeaff",
" l c #f9ff27",
" z c #ff45d7",
" x c #f6ff50",
" c c #ff3fcf",
" v c #25aae8",
" b c #a9e8ff",
" n c #e8ff24",
" m c #ff24a9",
" M c #24a9e8",
" N c #e9ff24",
" B c #ff26ab",
" V c #44d6f9",
" C c #dffdff",
" Z c #fdff4b",
" A c #ff4ce1",
" S c #caf4ff",
" D c #e7ff3b",
" F c #ff22a7",
" G c #22a7e7",
" H c #a7e7ff",
" J c #e7ff22",
" K c #d6f9ff",
" L c #ffff45",
" P c #3fcef6",
" I c #b7edff",
" U c #ecff2e",
" Y c #ff2db5",
" T c #3fcdf5",
" R c #36c2f2",
" E c #a4e6ff",
" W c #e6ff20",
" Q c #ff20a4",
" ! c #20a4e6",
" ~ c #f2ff22",
" ^ c #ff35c1",
" / c #30baee",
" ( c #ff2db4",
" ) c #2bb1eb",
" _ c #c8f3ff",
" ` c #ffff3b",
" ' c #f0ff50",
" ] c #ff33be",
" [ c #1ea2e5",
" { c #a2e5ff",
" } c #e5ff1e",
" | c #ff1ea2",
".  c #ff1fa3",
".. c #2cb4eb",
".X c #afeaff",
".o c #f3ff29",
".O c #ff39c6",
".+ c #bdf000",
".@ c #e4ff32",
".# c #ff1c9f",
".$ c #1c9fe4",
".% c #9fe4ff",
".& c #e4ff1c",
".* c #1da1e5",
".= c #b2ebff",
".- c #ecff2a",
".; c #e9ff29",
".: c #ff27ac",
".> c #9de300",
"., c #e3ff1b",
".< c #ff1b9d",
".1 c #1b9de3",
".2 c #9de3ff",
".3 c #9ee3ff",
".4 c #eaff1c",
".5 c #ff29ae",
".6 c #9ae200",
".7 c #e2ff19",
".8 c #ff199a",
".9 c #199ae2",
".0 c #9ae2ff",
".q c #ff1a9b",
".w c #26abe9",
".e c #98e100",
".r c #e1ff17",
".t c #ff1798",
".y c #1798e1",
".u c #98e1ff",
".i c #1899e1",
".p c #a9e7ff",
".a c #e9ff25",
".s c #96e000",
".d c #e0ff15",
".f c #ff1596",
".g c #1596e0",
".h c #96e0ff",
".j c #98e0ff",
".k c #e7ff16",
".l c #93df00",
".z c #dfff13",
".x c #ff1393",
".c c #1393df",
".v c #93dfff",
".b c #deff13",
".n c #ff1493",
".m c #91de00",
".M c #deff11",
".N c #ff1191",
".B c #1191de",
".V c #91deff",
".C c #90ddff",
".Z c #c1ff11",
".A c #ff208b",
".S c #8edd00",
".D c #ddff10",
".F c #ff108e",
".G c #108edd",
".H c #8eddff",
".J c #8ac2ff",
".K c #26ff1f",
".L c #ffc2b2",
".P c #8ddc00",
".I c #dcfe0e",
".U c #ff0e8c",
".Y c #0e8cdc",
".T c #8cdcff",
".R c #dcff0e",
".E c #dbff0e",
".W c #ff0e8b",
".Q c #1d88bf",
".! c #b126ff",
".~ c #00ffc1",
".^ c #ffedbe",
"./ c #89db00",
".( c #db9e0b",
".) c #fe0c89",
"._ c #0c89db",
".` c #89dbff",
".' c #dbff0c",
".] c #ff0c89",
".[ c #bfff0c",
".{ c #ff1b85",
".} c #c1b126",
".| c #be00ff",
"X  c #00ffed",
"X. c #c30000",
"XX c #0011f0",
"Xo c #cceebe",
"XO c #edbe00",
"X+ c #e7edbe",
"X@ c #d36900",
"X# c #00b4ee",
"X$ c #00eded",
"X% c #32ebbd",
"X& c #b6b6b6",
"X* c #e8e807",
"X= c #82f2e8",
"X- c #ffefd9",
"X; c #eec00b",
"X: c #bf00f0",
"X> c #0028ec",
"X, c #adadad",
"X< c #a3a35a",
"X1 c #f0eaa3",
"X2 c #86f0f0",
"X3 c #ebd680",
"X4 c #000032",
/* pixels */
"                                                                ",
"                                                                ",
"                                                                ",
"                                                                ",
"           . X o O + @ # O + @ # O + @ # O + @ # O + @ # O + @ #",
"           $ % # O + @ # O + @ # O + @ # O + @ # O + @ # O + @ #",
"           $ @ # O + @ # O + @ # O + @ # O + @ # O + @ # O + @ #",
"           $ @ # O + @ # O + @ # O + @ # O + @ # & * = - ; + @ #",
"           $ @ # O + @ # O + @ # O + @ # O + @ # : > , < 1 2 3 #",
"           $ @ # O + @ # O + @ # O + @ # O + @ # 4 > , < 1 5 6 #",
"           $ @ # O + @ # O + @ # O + @ # O + @ # 7 > , < 1 8 9 #",
"           $ @ # O + @ # O + @ # O + @ # O + @ # 0 q w e : r t #",
"           $ @ # O + @ # O y u i p a s # O + @ # O + @ # O + @ #",
"           $ @ # O + @ # d f g h j k l z O + @ # O + @ # O + @ #",
"           $ @ # O + x c v b n m M b N B V + @ # O C Z A O + @ #",
"           $ @ # O S D F G H J F G H J F M K L # P I U Y T + @ #",
"           $ @ # R E W Q ! E W Q ! E W Q ! H ~ ^ / I U ( ) _ ` #",
"           $ ' ] [ { } | [ { } | [ { } | [ { }. .. I U ( ).X.o.O",
"          .+.@.#.$.%.&.#.$.%.&.#.$.%.&.#.$.%.&.#.*.=.- ( ).X.;.:",
"          .>.,.<.1.2.,.<.1.2.,.<.1.2.,.<.1.2.,.<.1.3.4.5 ).X.;.:",
"          .6.7.8.9.0.7.8.9.0.7.8.9.0.7.8.9.0.7.8.9.0.7.q.w.X.;.:",
"          .e.r.t.y.u.r.t.y.u.r.t.y.u.r.t.y.u.r.t.y.u.r.t.i.p.a.:",
"          .s.d.f.g.h.d.f.g.h.d.f.g.h.d.f.g.h.d.f.g.h.d.f.g.j.k F",
"          .l.z.x.c.v.z.x.c.v.z.x.c.v.z.x.c.v.z.x.c.v.z.x.c.v.b.n",
"          .m.M.N.B.V.M.N.B.V.M.N.B.V.M.N.B.V.M.N.B.V.M.N.B.C.Z.A",
"          .S.D.F.G.H.D.F.G.H.D.F.G.H.D.F.G.H.D.F.G.H.D.F.G.J.K.L",
"          .P.I.U.Y.T.R.U.Y.T.R.U.Y.T.R.U.Y.T.R.U.Y.T.E.W.Q.!.~.^",
"          ./.(.)._.`.'.]._.`.'.]._.`.'.]._.`.'.]._.`.[.{.}.|X .^",
"                                                  X.XXXoXO.|X X+",
"                                                  X@X#.^XO.|X$X%",
"                                                X&X*X=X-X;X:X>  ",
"                                                X,X<X1X2X3X4    "
};
