/* XPM */
static char *slice_image[] = {
/* width height num_colors chars_per_pixel */
"48 48 274 2",
/* colors */
"   c #000000",
" . c #51e8ff",
" X c #e6ff4c",
" o c #ffde50",
" O c #ff50e6",
" + c #50e6ff",
" @ c #e6ffff",
" # c #ffff50",
" $ c #e6ffe2",
" % c #ebf6ff",
" & c #e6ff82",
" * c #ffd7f4",
" = c #f0f7e1",
" - c #f4e6ff",
" ; c #f6ffd7",
" : c #ff81eb",
" > c #86ecf5",
" , c #f8deff",
" < c #deffff",
" 1 c #fffff8",
" 2 c #fff8de",
" 3 c #84ebf5",
" 4 c #ddf4e4",
" 5 c #dbf4e5",
" 6 c #f7f7e0",
" 7 c #f6f7e0",
" 8 c #daf4e5",
" 9 c #d9f5e5",
" 0 c #83ebf5",
" q c #81ebf6",
" w c #e5ff82",
" e c #ffdaf4",
" r c #faf7df",
" t c #f5e5ff",
" y c #f6ffd9",
" u c #d1f7ff",
" i c #efff40",
" p c #ff32bd",
" a c #34bff0",
" s c #d5f8ff",
" d c #ffff44",
" f c #ff4fe5",
" g c #36c3f2",
" h c #ade9ff",
" j c #e9ff26",
" k c #ff26ad",
" l c #26ade9",
" z c #f3ff26",
" x c #ff3ac8",
" c c #e4feff",
" v c #efff4e",
" b c #ff32bc",
" n c #25abe8",
" m c #abe8ff",
" M c #e8ff25",
" N c #ff25ab",
" B c #38c5f2",
" V c #4ee3fe",
" C c #baeeff",
" Z c #e8ff2f",
" A c #ff24aa",
" S c #24aae8",
" D c #aae8ff",
" F c #e8ff24",
" G c #c4f2ff",
" H c #ffff37",
" J c #fdff50",
" K c #ff4ce2",
" L c #2db5ec",
" P c #a8e7ff",
" I c #e7ff23",
" U c #ff23a8",
" Y c #23a8e7",
" T c #f2ff23",
" R c #ff37c3",
" E c #f2ff43",
" W c #ff36c3",
" Q c #38c4f2",
" ! c #d6f9ff",
" ~ c #ffff45",
" ^ c #e1fdff",
" / c #ebff4c",
" ( c #ff2ab2",
" ) c #22a6e6",
" _ c #a6e6ff",
" ` c #e6ff22",
" ' c #ff22a6",
" ] c #36c2f1",
" [ c #ff50e5",
" { c #3dcbf5",
" } c #b8edff",
" | c #edff2f",
".  c #ff2eb6",
".. c #b3ecff",
".X c #f4ff2c",
".o c #ff3cca",
".O c #4bdffc",
".+ c #afeaff",
".@ c #e6ff28",
".# c #ff20a5",
".$ c #20a5e6",
".% c #a5e6ff",
".& c #e6ff20",
".* c #c2f1ff",
".= c #f4ff35",
".- c #ff3bc8",
".; c #31baee",
".: c #ebff2c",
".> c #ff2ab1",
"., c #3ac7f3",
".< c #fbff50",
".1 c #ff49dd",
".2 c #a3e5ff",
".3 c #e5ff1f",
".4 c #ff1fa3",
".5 c #1fa3e5",
".6 c #eaff1f",
".7 c #ff27ae",
".8 c #29afea",
".9 c #c6f3ff",
".0 c #ffff39",
".q c #d9faff",
".w c #e7ff47",
".e c #1ea1e4",
".r c #a1e4ff",
".t c #e4ff1e",
".y c #ff1ea1",
".u c #27ace8",
".i c #adeaff",
".p c #f3ff28",
".a c #ff3ac6",
".s c #45d7f9",
".d c #a4e6ff",
".f c #e4ff20",
".g c #ff1da0",
".h c #1da0e4",
".j c #a0e4ff",
".k c #e4ff1d",
".l c #edff25",
".z c #e9ff28",
".x c #ff27ac",
".c c #9ee3ff",
".v c #e3ff1b",
".b c #ff1b9e",
".n c #1b9ee3",
".m c #e8ff1b",
".M c #ff25aa",
".N c #1a9ce2",
".B c #9ce2ff",
".V c #e2ff1a",
".C c #ff1a9c",
".Z c #22a7e7",
".A c #199be2",
".S c #9be2ff",
".D c #e2ff19",
".F c #ff199b",
".G c #a6e7ff",
".H c #ebff22",
".J c #1899e1",
".K c #99e1ff",
".L c #e1ff18",
".P c #ff1899",
".I c #e5ff18",
".U c #ff20a4",
".Y c #1798e0",
".T c #98e0ff",
".R c #e0ff17",
".E c #ff1798",
".W c #1fa2e5",
".Q c #1596e0",
".! c #96e0ff",
".~ c #e0ff15",
".^ c #ff1596",
"./ c #a0e5ff",
".( c #e9ff1e",
".) c #1494df",
"._ c #94dfff",
".` c #dfff14",
".' c #ff1494",
".] c #e3ff14",
".[ c #ff1d9f",
".{ c #1393de",
".} c #93deff",
".| c #deff13",
"X  c #ff1393",
"X. c #ddff13",
"XX c #ff1392",
"Xo c #1291de",
"XO c #91deff",
"X+ c #deff12",
"X@ c #ff1291",
"X# c #90ddff",
"X$ c #d0ff12",
"X% c #ff1188",
"X& c #108fdd",
"X* c #8fddff",
"X= c #ddff10",
"X- c #ff108f",
"X; c #108edc",
"X: c #87d0ff",
"X> c #62ff0f",
"X, c #ff7d9f",
"X< c #0f8edc",
"X1 c #8edcff",
"X2 c #dcff0f",
"X3 c #ff0f8e",
"X4 c #dbff0f",
"X5 c #ff0f8d",
"X6 c #0e85cf",
"X7 c #9e62ff",
"X8 c #00ff7d",
"X9 c #ffedbe",
"X0 c #0e8cdc",
"Xq c #8cdcff",
"Xw c #dcff0e",
"Xe c #ff0e8c",
"Xr c #8bdbff",
"Xt c #cfff0e",
"Xy c #ff0d83",
"Xu c #7c9d62",
"Xi c #be00ff",
"Xp c #00ffed",
"Xa c #0d8adb",
"Xs c #8adbe4",
"Xd c #dbff0d",
"Xf c #ff0d8a",
"Xg c #8adbff",
"Xh c #0d89da",
"Xj c #81ceff",
"Xk c #61ff0c",
"Xl c #ff7c9c",
"Xz c #edbe00",
"Xx c #0d8ada",
"Xc c #89da4c",
"Xv c #dae50c",
"Xb c #ff0c89",
"Xn c #0c89da",
"Xm c #89daff",
"XM c #daff0c",
"XN c #d9ff0c",
"XB c #ff0c88",
"XV c #0b80cd",
"XC c #9c61ff",
"XZ c #00ff7b",
"XA c #edbf00",
"XS c #be007f",
"XD c #feedbe",
"XF c #080000",
"XG c #84ecbf",
"XH c #00feed",
"XJ c #66eebe",
"XK c #eded00",
"XL c #731ded",
"XP c #ffefd6",
"XI c #bf00ff",
"XU c #0073ed",
"XY c #efef00",
"XT c #f060ef",
"XR c #fff0f0",
"XE c #efd982",
"XW c #edbd00",
"XQ c #000065",
"X! c #a1a100",
"X~ c #dcd3a1",
"X^ c #ffdcdc",
"X/ c #f0f0f0",
"X( c #d77aff",
"X) c #0bffee",
"X_ c #79ecc0",
"X` c #8d8d00",
"X' c #a0ee8d",
"X] c #c6a0a0",
"X[ c #eaea44",
"X{ c #000cea",
/* pixels */
"                                                                                                ",
"                                                                                                ",
"                                                                                                ",
"                                                                                                ",
"                                                                                                ",
"                                                                                                ",
"                 . X o O + @ # O + @ # O + @ # O + @ # O + @ # O + @ # O + @ # O + @ # O + @ # O",
"                 + $ # O + @ # O + @ # O + @ # O + @ # O + @ # O + @ # O + @ # O + @ # O + @ # O",
"                 + @ # O + @ # O + @ # O + @ # O + @ # O + @ # O + @ # O + @ # O + @ # O + @ # O",
"                 + @ # O + @ # O + @ # O + @ # O + @ # O + @ # O + @ # O + @ # O + @ # O + @ # O",
"                 + @ # O + @ # O + @ # O + @ # O + @ # O + @ # O + @ # O + @ # O + @ # O + @ # O",
"                 + @ # O + @ # O + @ # O + @ # O + @ # O + @ # O + @ # O + % & * = - ; : + @ # O",
"                 + @ # O + @ # O + @ # O + @ # O + @ # O + @ # O + @ # O > , < 1 2 , < 1 3 @ # O",
"                 + @ # O + @ # O + @ # O + @ # O + @ # O + @ # O + @ # O 4 , < 1 2 , < 1 5 @ # O",
"                 + @ # O + @ # O + @ # O + @ # O + @ # O + @ # O + @ # O 6 , < 1 2 , < 1 7 @ # O",
"                 + @ # O + @ # O + @ # O + @ # O + @ # O + @ # O + @ # O 8 , < 1 2 , < 1 9 @ # O",
"                 + @ # O + @ # O + @ # O + @ # O + @ # O + @ # O + @ # O 0 , < 1 2 , < 1 q @ # O",
"                 + @ # O + @ # O + @ # O + @ # O + @ # O + @ # O + @ # O + % w e r t y : + @ # O",
"                 + @ # O + @ # O + @ # O + u i p a s d O + @ # O + @ # O + @ # O + @ # O + @ # O",
"                 + @ # O + @ # O + @ # f g h j k l h z x + @ # O + @ # O + @ # O + @ # O + @ # O",
"                 + @ # O + @ # O + c v b n m M N n m M N B @ # O + @ # O + @ # O + @ # O + @ # O",
"                 + @ # O + @ # O V C Z A S D F A S D F A S G H O + @ # O + @ # O + @ # O + @ # O",
"                 + @ # O + @ J K L P I U Y P I U Y P I U Y P T R + @ # O + s E W Q ! ~ O + @ # O",
"                 + @ # O + ^ / ( ) _ ` ' ) _ ` ' ) _ ` ' ) _ ` ' ] @ # [ { } |.  L...X.o + @ # O",
"                 + @ # O.O.+.@.#.$.%.&.#.$.%.&.#.$.%.&.#.$.%.&.#.$.*.=.-.; } |.  L...:.>., @ # O",
"                 + @.<.1 n.2.3.4.5.2.3.4.5.2.3.4.5.2.3.4.5.2.3.4.5.2.6.7.; } |.  L...:.>.8.9.0 O",
"                 +.q.w U.e.r.t.y.e.r.t.y.e.r.t.y.e.r.t.y.e.r.t.y.e.r.t.y.u } |.  L...:.>.8.i.p.a",
"                .s.d.f.g.h.j.k.g.h.j.k.g.h.j.k.g.h.j.k.g.h.j.k.g.h.j.k.g.h m.l.  L...:.>.8.i.z.x",
"                .5.c.v.b.n.c.v.b.n.c.v.b.n.c.v.b.n.c.v.b.n.c.v.b.n.c.v.b.n.c.m.M L...:.>.8.i.z.x",
"                .N.B.V.C.N.B.V.C.N.B.V.C.N.B.V.C.N.B.V.C.N.B.V.C.N.B.V.C.N.B.V.C.Z...:.>.8.i.z.x",
"                .A.S.D.F.A.S.D.F.A.S.D.F.A.S.D.F.A.S.D.F.A.S.D.F.A.S.D.F.A.S.D.F.A.G.H.>.8.i.z.x",
"                .J.K.L.P.J.K.L.P.J.K.L.P.J.K.L.P.J.K.L.P.J.K.L.P.J.K.L.P.J.K.L.P.J.K.I.U.8.i.z.x",
"                .Y.T.R.E.Y.T.R.E.Y.T.R.E.Y.T.R.E.Y.T.R.E.Y.T.R.E.Y.T.R.E.Y.T.R.E.Y.T.R.E.W.i.z.x",
"                .Q.!.~.^.Q.!.~.^.Q.!.~.^.Q.!.~.^.Q.!.~.^.Q.!.~.^.Q.!.~.^.Q.!.~.^.Q.!.~.^.Q./.(.x",
"                .)._.`.'.)._.`.'.)._.`.'.)._.`.'.)._.`.'.)._.`.'.)._.`.'.)._.`.'.)._.`.'.)._.].[",
"                .{.}.|X .{.}.|X .{.}.|X .{.}.|X .{.}.|X .{.}.|X .{.}.|X .{.}.|X .{.}.|X .{.}X.XX",
"                XoXOX+X@XoXOX+X@XoXOX+X@XoXOX+X@XoXOX+X@XoXOX+X@XoXOX+X@XoXOX+X@XoXOX+X@XoX#X$X%",
"                X&X*X=X-X&X*X=X-X&X*X=X-X&X*X=X-X&X*X=X-X&X*X=X-X&X*X=X-X&X*X=X-X&X*X=X-X;X:X>X,",
"                X<X1X2X3X<X1X2X3X<X1X2X3X<X1X2X3X<X1X2X3X<X1X2X3X<X1X2X3X<X1X2X3X<X1X4X5X6X7X8X9",
"                X0XqXwXeX0XqXwXeX0XqXwXeX0XqXwXeX0XqXwXeX0XqXwXeX0XqXwXeX0XqXwXeX0XrXtXyXuXiXpX9",
"                XaXsXdXfXaXgXdXfXaXgXdXfXaXgXdXfXaXgXdXfXaXgXdXfXaXgXdXfXaXgXdXfXhXjXkXlXzXiXpX9",
"                XxXcXvXbXnXmXMXbXnXmXMXbXnXmXMXbXnXmXMXbXnXmXMXbXnXmXMXbXnXmXNXBXVXCXZX9XzXiXpX9",
"                                                                                XAXSXpX9XzXiXpXD",
"                                                                            XFXGXzXiXpX9XzXiXHXJ",
"                                                                          XKXLXPXzXiXpX9XzXIXU  ",
"                                                                          XYXTXRXEXiXpXDXWXQ    ",
"                                                                          X!X~X^X/X(X)X_        ",
"                                                                          X`X'X]X/X[X{          "
};
